<svg width="20" height="20" viewBox="0 0 20 20" fill="none" xmlns="http://www.w3.org/2000/svg">
<path d="M5.00613 15.1392C4.34988 15.1392 3.76489 15.0265 3.25115 14.8011C2.74074 14.5757 2.33472 14.2625 2.03311 13.8615C1.73482 13.4571 1.57241 12.9881 1.5459 12.4545H2.79874C2.82525 12.7826 2.93794 13.066 3.13681 13.3047C3.33567 13.54 3.59585 13.7223 3.91735 13.8515C4.23884 13.9808 4.59514 14.0454 4.98624 14.0454C5.42374 14.0454 5.81152 13.9692 6.14959 13.8167C6.48766 13.6643 6.75281 13.4522 6.94505 13.1804C7.13728 12.9086 7.2334 12.5937 7.2334 12.2358C7.2334 11.8612 7.1406 11.5315 6.95499 11.2464C6.76938 10.9581 6.4976 10.7327 6.13965 10.5703C5.78169 10.4079 5.34419 10.3267 4.82715 10.3267H4.01181V9.23293H4.82715C5.2315 9.23293 5.58614 9.16002 5.89107 9.01418C6.19931 8.86835 6.4396 8.66286 6.61195 8.39771C6.78761 8.13255 6.87544 7.821 6.87544 7.46305C6.87544 7.11835 6.79921 6.8184 6.64675 6.56319C6.49429 6.30798 6.27885 6.10912 6.00044 5.9666C5.72535 5.82408 5.40054 5.75282 5.02601 5.75282C4.67469 5.75282 4.34325 5.81745 4.03169 5.94671C3.72346 6.07266 3.47156 6.25661 3.27601 6.49856C3.08046 6.73719 2.9744 7.02555 2.95783 7.36361H1.76465C1.78453 6.83 1.94528 6.36267 2.24689 5.96163C2.5485 5.55727 2.94292 5.2424 3.43013 5.01702C3.92066 4.79164 4.45925 4.67896 5.0459 4.67896C5.67563 4.67896 6.21588 4.80656 6.66664 5.06177C7.11739 5.31366 7.46375 5.64676 7.7057 6.06106C7.94765 6.47536 8.06863 6.9228 8.06863 7.40339C8.06863 7.97678 7.91782 8.46565 7.61621 8.87001C7.31792 9.27436 6.9119 9.55443 6.39817 9.71021V9.78975C7.04116 9.89581 7.54329 10.1692 7.90456 10.6101C8.26583 11.0476 8.44647 11.5895 8.44647 12.2358C8.44647 12.7893 8.29566 13.2864 7.99405 13.7273C7.69576 14.1648 7.28809 14.5094 6.77104 14.7613C6.254 15.0132 5.66569 15.1392 5.00613 15.1392Z" fill="#262626"/>
<path d="M13.8009 15H10.6588V4.81816H13.9401C14.9278 4.81816 15.7729 5.022 16.4756 5.42967C17.1782 5.83402 17.7168 6.4157 18.0914 7.17469C18.4659 7.93038 18.6531 8.83521 18.6531 9.88918C18.6531 10.9498 18.4642 11.8629 18.0864 12.6285C17.7085 13.3908 17.1584 13.9775 16.4358 14.3885C15.7133 14.7961 14.835 15 13.8009 15ZM11.8918 13.9062H13.7213C14.5632 13.9062 15.2609 13.7438 15.8144 13.419C16.3679 13.0942 16.7805 12.6318 17.0523 12.0319C17.3241 11.432 17.46 10.7178 17.46 9.88918C17.46 9.06721 17.3257 8.35959 17.0573 7.76631C16.7888 7.16972 16.3878 6.71234 15.8541 6.39415C15.3205 6.07266 14.656 5.91191 13.8605 5.91191H11.8918V13.9062Z" fill="#262626"/>
</svg>
