<svg width="20" height="20" viewBox="0 0 20 20" fill="none" xmlns="http://www.w3.org/2000/svg">
<path d="M16.6668 10V13.5C16.6668 15.3856 16.6668 16.3284 16.081 16.9142C15.4953 17.5 14.5524 17.5 12.6668 17.5H5.41683C4.26623 17.5 3.3335 16.5673 3.3335 15.4167V15.4167C3.3335 14.2661 4.26624 13.3333 5.41683 13.3333H12.6668C14.5524 13.3333 15.4953 13.3333 16.081 12.7475C16.6668 12.1618 16.6668 11.219 16.6668 9.33333V6.5C16.6668 4.61438 16.6668 3.67157 16.081 3.08579C15.4953 2.5 14.5524 2.5 12.6668 2.5H7.33349C5.44788 2.5 4.50507 2.5 3.91928 3.08579C3.3335 3.67157 3.3335 4.61438 3.3335 6.5V15.4167" stroke="#262626"/>
<path d="M7.5 6.66666L12.5 6.66666" stroke="#262626" stroke-linecap="round"/>
</svg>
