<svg width="20" height="20" viewBox="0 0 20 20" fill="none" xmlns="http://www.w3.org/2000/svg">
<path d="M16.6667 10V13.5C16.6667 15.3856 16.6667 16.3284 16.0809 16.9142C15.4951 17.5 14.5523 17.5 12.6667 17.5H5.41668C4.26608 17.5 3.33334 16.5673 3.33334 15.4167V15.4167C3.33334 14.2661 4.26608 13.3333 5.41668 13.3333H12.6667C14.5523 13.3333 15.4951 13.3333 16.0809 12.7475C16.6667 12.1618 16.6667 11.219 16.6667 9.33333V6.5C16.6667 4.61438 16.6667 3.67157 16.0809 3.08579C15.4951 2.5 14.5523 2.5 12.6667 2.5H7.33334C5.44772 2.5 4.50492 2.5 3.91913 3.08579C3.33334 3.67157 3.33334 4.61438 3.33334 6.5V15.4167" stroke="#262626"/>
<path d="M7.5 6.66666L12.5 6.66666" stroke="#262626" stroke-linecap="round"/>
</svg>
