<svg width="20" height="20" viewBox="0 0 20 20" fill="none" xmlns="http://www.w3.org/2000/svg">
<path d="M7.95598 9.00956C7.91622 8.10294 7.93729 7.1285 7.96212 6.47023C8.54462 6.77786 9.39904 7.24683 10.1643 7.73458C10.5536 7.98271 10.9117 8.23053 11.1963 8.46011C11.4934 8.69979 11.6652 8.88421 11.732 8.9999C11.7988 9.11558 11.8726 9.35657 11.9316 9.73374C11.9881 10.095 12.0237 10.529 12.044 10.9902C12.0837 11.8969 12.0627 12.8713 12.0378 13.5296C11.4553 13.2219 10.6009 12.753 9.83563 12.2652C9.44631 12.0171 9.08827 11.7693 8.80365 11.5397C8.50651 11.3 8.33472 11.1156 8.26792 10.9999C8.20113 10.8842 8.12732 10.6432 8.06832 10.2661C8.01181 9.90478 7.97621 9.47079 7.95598 9.00956Z" stroke="#262626"/>
<circle cx="10" cy="10" r="7.5" stroke="#262626"/>
</svg>
