<svg width="20" height="20" viewBox="0 0 20 20" fill="none" xmlns="http://www.w3.org/2000/svg">
<path d="M7.95607 9.00956C7.91631 8.10294 7.93739 7.1285 7.96221 6.47023C8.54471 6.77786 9.39913 7.24683 10.1644 7.73458C10.5537 7.98271 10.9118 8.23053 11.1964 8.46011C11.4935 8.69979 11.6653 8.88421 11.7321 8.9999C11.7989 9.11558 11.8727 9.35657 11.9317 9.73374C11.9882 10.095 12.0238 10.529 12.0441 10.9902C12.0838 11.8969 12.0627 12.8713 12.0379 13.5296C11.4554 13.2219 10.601 12.753 9.83572 12.2652C9.4464 12.0171 9.08836 11.7693 8.80374 11.5397C8.5066 11.3 8.33481 11.1156 8.26802 10.9999C8.20122 10.8842 8.12741 10.6432 8.06841 10.2661C8.0119 9.90478 7.9763 9.47079 7.95607 9.00956Z" stroke="white"/>
<circle cx="10" cy="10" r="7.5" stroke="white"/>
</svg>
