<svg width="20" height="20" viewBox="0 0 20 20" fill="none" xmlns="http://www.w3.org/2000/svg">
<path d="M12.9165 4.16666C14.0869 4.16666 14.6721 4.16666 15.0925 4.44754C15.2744 4.56914 15.4307 4.72539 15.5523 4.90737C15.8332 5.32775 15.8332 5.91294 15.8332 7.08332V15C15.8332 16.5713 15.8332 17.357 15.345 17.8452C14.8569 18.3333 14.0712 18.3333 12.4998 18.3333H7.49984C5.92849 18.3333 5.14281 18.3333 4.65466 17.8452C4.1665 17.357 4.1665 16.5713 4.1665 15V7.08332C4.1665 5.91294 4.1665 5.32775 4.44739 4.90737C4.56899 4.72539 4.72524 4.56914 4.90722 4.44754C5.32759 4.16666 5.91279 4.16666 7.08317 4.16666" stroke="#262626"/>
<path d="M7.5 4.16667C7.5 3.24619 8.24619 2.5 9.16667 2.5H10.8333C11.7538 2.5 12.5 3.24619 12.5 4.16667C12.5 5.08714 11.7538 5.83333 10.8333 5.83333H9.16667C8.24619 5.83333 7.5 5.08714 7.5 4.16667Z" stroke="#262626"/>
<path d="M7.5 10L12.5 10" stroke="#262626" stroke-linecap="round"/>
<path d="M7.5 13.3333L10.8333 13.3333" stroke="#262626" stroke-linecap="round"/>
</svg>
