<svg width="20" height="20" viewBox="0 0 20 20" fill="none" xmlns="http://www.w3.org/2000/svg">
<path d="M12.9167 4.16666C14.087 4.16666 14.6722 4.16666 15.0926 4.44755C15.2746 4.56915 15.4308 4.7254 15.5524 4.90738C15.8333 5.32775 15.8333 5.91295 15.8333 7.08333V15C15.8333 16.5713 15.8333 17.357 15.3452 17.8452C14.857 18.3333 14.0713 18.3333 12.5 18.3333H7.49999C5.92864 18.3333 5.14297 18.3333 4.65481 17.8452C4.16666 17.357 4.16666 16.5713 4.16666 15V7.08333C4.16666 5.91295 4.16666 5.32775 4.44754 4.90738C4.56914 4.7254 4.72539 4.56915 4.90737 4.44755C5.32775 4.16666 5.91294 4.16666 7.08332 4.16666" stroke="white"/>
<path d="M7.5 4.16667C7.5 3.24619 8.24619 2.5 9.16667 2.5H10.8333C11.7538 2.5 12.5 3.24619 12.5 4.16667C12.5 5.08714 11.7538 5.83333 10.8333 5.83333H9.16667C8.24619 5.83333 7.5 5.08714 7.5 4.16667Z" stroke="white"/>
<path d="M7.5 10L12.5 10" stroke="white" stroke-linecap="round"/>
<path d="M7.5 13.3333L10.8333 13.3333" stroke="white" stroke-linecap="round"/>
</svg>
