<svg width="20" height="20" viewBox="0 0 20 20" fill="none" xmlns="http://www.w3.org/2000/svg">
<path d="M13 7.35669C13 6.42062 14.2633 6.1725 14.5985 7.04836C15.4093 9.16702 16 11.0623 16 12.087C16 15.3527 13.3137 18 10 18C6.68629 18 4 15.3527 4 12.087C4 10.9861 4.68187 8.88032 5.58587 6.57226C6.75691 3.58242 7.34243 2.0875 8.06521 2.00698C8.29648 1.98121 8.54879 2.02754 8.75513 2.13365C9.4 2.46526 9.4 4.09574 9.4 7.35669C9.4 8.33639 10.2059 9.13059 11.2 9.13059C12.1941 9.13059 13 8.33639 13 7.35669Z" stroke="white"/>
<path d="M8.5 18L8.18258 17.2594C7.45859 15.57 7.75763 13.6161 8.95373 12.2206V12.2206C9.50369 11.579 10.4963 11.579 11.0463 12.2206V12.2206C12.2424 13.6161 12.5414 15.57 11.8174 17.2594L11.5 18" stroke="white"/>
</svg>
