<svg width="20" height="20" viewBox="0 0 20 20" fill="none" xmlns="http://www.w3.org/2000/svg">
<path d="M4.08337 7.70253C4.08337 6.96736 4.08432 6.47379 4.12344 6.09801C4.16119 5.73529 4.22784 5.56846 4.30383 5.45809C4.39027 5.33256 4.49894 5.22389 4.62448 5.13745C4.73484 5.06146 4.90167 4.99481 5.26439 4.95705C5.64017 4.91794 6.13374 4.91699 6.86891 4.91699C7.54162 4.91699 7.72013 4.92486 7.87614 4.97338C7.94876 4.99596 8.01917 5.02513 8.08649 5.06051L8.43541 4.39661L8.08649 5.06051C8.23111 5.13652 8.3629 5.25718 8.83858 5.73286L9.13147 6.02575C9.1603 6.05458 9.18875 6.08309 9.21687 6.11126C9.71039 6.60572 10.101 6.99705 10.6094 7.20766C11.1179 7.41827 11.6708 7.41774 12.3694 7.41707C12.4092 7.41703 12.4495 7.41699 12.4902 7.41699H12.6667C13.6307 7.41699 14.2783 7.41859 14.7613 7.48353C15.2228 7.54557 15.4203 7.65279 15.5506 7.78311L16.0809 7.25278L15.5506 7.78311C15.6809 7.91343 15.7881 8.11092 15.8502 8.57238C15.9151 9.05542 15.9167 9.70298 15.9167 10.667V11.8337C15.9167 12.7977 15.9151 13.4452 15.8502 13.9283C15.7881 14.3897 15.6809 14.5872 15.5506 14.7175C15.4203 14.8479 15.2228 14.9551 14.7613 15.0171C14.2783 15.0821 13.6307 15.0837 12.6667 15.0837H7.33337C6.36936 15.0837 5.7218 15.0821 5.23877 15.0171C4.7773 14.9551 4.57981 14.8479 4.44949 14.7175C4.31917 14.5872 4.21195 14.3897 4.14991 13.9283C4.08497 13.4452 4.08337 12.7977 4.08337 11.8337V7.70253Z" stroke="#705AD3" stroke-width="1.5"/>
</svg>
