<svg width="20" height="20" viewBox="0 0 20 20" fill="none" xmlns="http://www.w3.org/2000/svg">
<path d="M6.6665 5L17.4998 5" stroke="#262626" stroke-linecap="round"/>
<path d="M6.6665 10L17.4998 10" stroke="#262626" stroke-linecap="round"/>
<path d="M6.6665 15L17.4998 15" stroke="#262626" stroke-linecap="round"/>
<path d="M2.70817 11.0417C3.28347 11.0417 3.74984 10.5753 3.74984 10C3.74984 9.42471 3.28347 8.95834 2.70817 8.95834C2.13287 8.95834 1.6665 9.42471 1.6665 10C1.6665 10.5753 2.13287 11.0417 2.70817 11.0417Z" fill="#262626"/>
<path d="M2.70817 6.04168C3.28347 6.04168 3.74984 5.57531 3.74984 5.00001C3.74984 4.42471 3.28347 3.95834 2.70817 3.95834C2.13287 3.95834 1.6665 4.42471 1.6665 5.00001C1.6665 5.57531 2.13287 6.04168 2.70817 6.04168Z" fill="#262626"/>
<path d="M2.70817 16.0417C3.28347 16.0417 3.74984 15.5753 3.74984 15C3.74984 14.4247 3.28347 13.9583 2.70817 13.9583C2.13287 13.9583 1.6665 14.4247 1.6665 15C1.6665 15.5753 2.13287 16.0417 2.70817 16.0417Z" fill="#262626"/>
</svg>
