<svg width="20" height="20" viewBox="0 0 20 20" fill="none" xmlns="http://www.w3.org/2000/svg">
<path d="M6.66666 5L17.5 5" stroke="white" stroke-linecap="round"/>
<path d="M6.66666 10L17.5 10" stroke="white" stroke-linecap="round"/>
<path d="M6.66666 15L17.5 15" stroke="white" stroke-linecap="round"/>
<path d="M2.70832 11.0417C3.28362 11.0417 3.74999 10.5753 3.74999 10C3.74999 9.42471 3.28362 8.95834 2.70832 8.95834C2.13303 8.95834 1.66666 9.42471 1.66666 10C1.66666 10.5753 2.13303 11.0417 2.70832 11.0417Z" fill="white"/>
<path d="M2.70832 6.04167C3.28362 6.04167 3.74999 5.5753 3.74999 5C3.74999 4.42471 3.28362 3.95834 2.70832 3.95834C2.13303 3.95834 1.66666 4.42471 1.66666 5C1.66666 5.5753 2.13303 6.04167 2.70832 6.04167Z" fill="white"/>
<path d="M2.70832 16.0417C3.28362 16.0417 3.74999 15.5753 3.74999 15C3.74999 14.4247 3.28362 13.9583 2.70832 13.9583C2.13303 13.9583 1.66666 14.4247 1.66666 15C1.66666 15.5753 2.13303 16.0417 2.70832 16.0417Z" fill="white"/>
</svg>
