<svg width="20" height="20" viewBox="0 0 20 20" fill="none" xmlns="http://www.w3.org/2000/svg">
<path d="M10.0095 1.35416C13.4194 1.35416 16.5871 4.08483 16.5871 7.52976C16.5871 9.80683 15.8178 11.4167 14.5286 13.2936C13.1368 15.3198 11.3725 17.2313 10.5148 18.1221C10.2313 18.4165 9.76833 18.4165 9.48482 18.1221C8.6271 17.2313 6.86278 15.3198 5.47104 13.2936C4.18179 11.4167 3.41251 9.80683 3.41251 7.52976C3.41251 4.08483 6.58013 1.35416 9.99009 1.35416" stroke="white" stroke-linecap="round"/>
<path d="M12.47 7.89358C12.47 9.27127 11.3677 10.4106 10.0037 10.4106C8.63972 10.4106 7.52957 9.27127 7.52957 7.89358C7.52957 6.51589 8.63972 5.47114 10.0037 5.47114C11.3677 5.47114 12.47 6.51589 12.47 7.89358Z" stroke="white"/>
</svg>
