<svg width="20" height="20" viewBox="0 0 20 20" fill="none" xmlns="http://www.w3.org/2000/svg">
<path d="M10.0095 1.35416C13.4195 1.35416 16.5872 4.08482 16.5872 7.52975C16.5872 9.80682 15.8179 11.4167 14.5287 13.2936C13.1369 15.3198 11.3726 17.2313 10.5149 18.122C10.2314 18.4165 9.76842 18.4165 9.48491 18.122C8.6272 17.2313 6.86287 15.3198 5.47113 13.2936C4.18189 11.4167 3.4126 9.80682 3.4126 7.52975C3.4126 4.08482 6.58022 1.35416 9.99018 1.35416" stroke="#262626" stroke-linecap="round"/>
<path d="M12.4703 7.89358C12.4703 9.27127 11.3679 10.4106 10.0039 10.4106C8.63993 10.4106 7.52979 9.27127 7.52979 7.89358C7.52979 6.51589 8.63993 5.47114 10.0039 5.47114C11.3679 5.47114 12.4703 6.51589 12.4703 7.89358Z" stroke="#262626"/>
</svg>
