<svg width="20" height="20" viewBox="0 0 20 20" fill="none" xmlns="http://www.w3.org/2000/svg">
<path d="M6.66651 15.7735C7.67997 16.3586 8.82959 16.6667 9.99984 16.6667C11.1701 16.6667 12.3197 16.3586 13.3332 15.7735C14.3466 15.1884 15.1882 14.3468 15.7733 13.3333C16.3585 12.3199 16.6665 11.1703 16.6665 10C16.6665 8.82977 16.3585 7.68014 15.7733 6.66668C15.1882 5.65322 14.3466 4.81163 13.3332 4.22651C12.3197 3.64139 11.1701 3.33334 9.99984 3.33334C8.82959 3.33334 7.67997 3.64139 6.66651 4.22651" stroke="#262626"/>
<path d="M1.6665 9.99998L1.27607 9.68763L1.02619 9.99998L1.27607 10.3123L1.6665 9.99998ZM9.1665 10.5C9.44265 10.5 9.6665 10.2761 9.6665 9.99998C9.6665 9.72384 9.44265 9.49998 9.1665 9.49998V10.5ZM4.6094 5.52097L1.27607 9.68763L2.05694 10.3123L5.39027 6.14566L4.6094 5.52097ZM1.27607 10.3123L4.6094 14.479L5.39027 13.8543L2.05694 9.68763L1.27607 10.3123ZM1.6665 10.5H9.1665V9.49998H1.6665V10.5Z" fill="#262626"/>
</svg>
