<svg xmlns="http://www.w3.org/2000/svg" fill="none" viewBox="0 0 20 20">
  <path stroke="#262626" stroke-linecap="round" stroke-linejoin="round" d="M1.9083 6.4833v8.1084c0 1.5833 1.125 2.2333 2.4917 1.45l1.9583-1.1167c.425-.2416 1.1334-.2666 1.575-.0416l4.375 2.1916c.4417.2167 1.15.2 1.575-.0416l3.6084-2.0667c.4583-.2667.8416-.9167.8416-1.45V5.4084c0-1.5834-1.125-2.2334-2.4916-1.45L13.8833 5.075c-.425.2417-1.1333.2667-1.575.0417l-4.375-2.1833c-.4416-.2167-1.15-.2-1.575.0416L2.75 5.0417c-.4667.2667-.8417.9167-.8417 1.4417ZM7.1333 3.3333v10.8334M13.1083 5.5167v11.15"/>
</svg>
