<svg width="20" height="20" viewBox="0 0 20 20" fill="none" xmlns="http://www.w3.org/2000/svg">
<path d="M2.22957 4.46882C2.69436 3.97134 3.42356 3.23958 4.07464 2.59524C4.85494 1.82304 6.11174 1.83808 6.8823 2.62L8.10651 3.86224C8.68691 4.45121 8.65562 5.37947 8.14837 6.0325C6.98913 7.52486 7.30256 8.53029 9.39016 10.6179C11.4803 12.708 12.4579 12.992 13.9487 11.8234C14.5974 11.315 15.5227 11.2871 16.1097 11.8656L17.3799 13.1175C18.1623 13.8886 18.1767 15.1463 17.4037 15.9268C16.761 16.5758 16.0313 17.3031 15.5323 17.7715C12.1459 20.9506 -0.941689 7.86321 2.22957 4.46882Z" stroke="white"/>
</svg>
