<svg width="20" height="20" viewBox="0 0 20 20" fill="none" xmlns="http://www.w3.org/2000/svg">
<path d="M12.1668 2V2.5C12.1668 2.50593 12.1668 2.51186 12.1668 2.51777C12.1669 2.65813 12.1669 2.79479 12.1564 2.91012C12.1449 3.03718 12.1176 3.18654 12.0329 3.33333C11.9451 3.48535 11.8188 3.61159 11.6668 3.69936C11.52 3.78411 11.3707 3.8114 11.2436 3.82292C11.1283 3.83337 10.9916 3.83335 10.8513 3.83334C10.8454 3.83333 10.8394 3.83333 10.8335 3.83333H9.16683C9.1609 3.83333 9.15497 3.83333 9.14906 3.83334C9.0087 3.83335 8.87204 3.83337 8.75671 3.82292C8.62965 3.8114 8.48029 3.78411 8.3335 3.69936M12.1668 2L8.3335 3.69936M12.1668 2H11.6668M12.1668 2H11.6668M8.3335 3.69936C8.18148 3.61159 8.05524 3.48535 7.96747 3.33333M8.3335 3.69936L7.96747 3.33333M11.6668 2H8.3335H7.8335M11.6668 2H7.8335M7.8335 2V2.5M7.8335 2V2.5M7.8335 2.5C7.8335 2.50593 7.8335 2.51186 7.83349 2.51778M7.8335 2.5L7.83349 2.51778M7.83349 2.51778C7.83348 2.65813 7.83346 2.79479 7.84391 2.91012M7.83349 2.51778L7.84391 2.91012M7.84391 2.91012C7.85543 3.03718 7.88272 3.18654 7.96747 3.33333M7.84391 2.91012L7.96747 3.33333" stroke="#262626"/>
<rect x="5.5" y="2.16666" width="9" height="15.6667" rx="1.5" stroke="#262626"/>
<ellipse cx="9.99984" cy="15" rx="0.833333" ry="0.833333" fill="#262626"/>
</svg>
