<svg width="20" height="20" viewBox="0 0 20 20" fill="none" xmlns="http://www.w3.org/2000/svg">
<path d="M8.74984 18.3333C12.3234 18.3333 15.2789 15.687 15.7635 12.2471C15.8406 11.7002 15.3855 11.25 14.8332 11.25H9.74984C9.19755 11.25 8.74984 10.8023 8.74984 10.25V5.16666C8.74984 4.61437 8.29958 4.15924 7.75269 4.23629C4.31282 4.72094 1.6665 7.67642 1.6665 11.25C1.6665 15.162 4.83782 18.3333 8.74984 18.3333Z" stroke="#262626"/>
<path d="M18.2592 7.3368C17.8269 4.45268 15.5471 2.17291 12.663 1.74063C12.1168 1.65877 11.6665 2.11437 11.6665 2.66666V7.33332C11.6665 7.88561 12.1142 8.33332 12.6665 8.33332H17.3332C17.8855 8.33332 18.3411 7.88299 18.2592 7.3368Z" stroke="#262626"/>
</svg>
