<svg width="20" height="20" viewBox="0 0 20 20" fill="none" xmlns="http://www.w3.org/2000/svg">
<path d="M8.74999 18.3333C12.3236 18.3333 15.279 15.687 15.7637 12.2471C15.8407 11.7003 15.3856 11.25 14.8333 11.25H9.74999C9.1977 11.25 8.74999 10.8023 8.74999 10.25V5.16667C8.74999 4.61438 8.29973 4.15925 7.75285 4.2363C4.31297 4.72095 1.66666 7.67643 1.66666 11.25C1.66666 15.162 4.83797 18.3333 8.74999 18.3333Z" stroke="white"/>
<path d="M18.2593 7.33681C17.8271 4.45269 15.5473 2.17292 12.6632 1.74064C12.117 1.65878 11.6667 2.11438 11.6667 2.66667V7.33333C11.6667 7.88562 12.1144 8.33333 12.6667 8.33333H17.3333C17.8856 8.33333 18.3412 7.883 18.2593 7.33681Z" stroke="white"/>
</svg>
