<svg width="20" height="20" viewBox="0 0 20 20" fill="none" xmlns="http://www.w3.org/2000/svg">
<path d="M10.7273 2.63255H9.27275C8.67026 2.63255 7.81821 3.75546 7.81821 4.69206L8.00756 6.9962M8.54548 14.9962C8.54548 14.6326 8.54548 14.079 8.54548 13.5417L8.30641 10.6326" stroke="white" stroke-linecap="round"/>
<path d="M8.30612 10.6326L3.17046 11.521C2.55911 11.6268 2 11.1561 2 10.5356L2 9.55875C2 9.11698 2.28988 8.72756 2.71307 8.6008L7.99772 7.01786" stroke="white" stroke-linecap="round"/>
<path d="M10 17.178L6.91339 17.4867C6.61904 17.5161 6.36363 17.285 6.36363 16.9892L6.36363 15.9823C6.36363 15.7577 6.5134 15.5607 6.72981 15.5006L8.54545 14.9962" stroke="white" stroke-linecap="round"/>
<path d="M9.2727 2.63255H10.7272C11.3297 2.63255 12.1818 3.75546 12.1818 4.69206L11.9924 6.9962M11.4545 14.9962C11.4545 14.6326 11.4545 14.079 11.4545 13.5417L11.6936 10.6326" stroke="white" stroke-linecap="round"/>
<path d="M11.6939 10.6326L16.8295 11.521C17.4409 11.6268 18 11.1561 18 10.5356L18 9.55875C18 9.11698 17.7101 8.72756 17.2869 8.6008L12.0023 7.01786" stroke="white" stroke-linecap="round"/>
<path d="M10 17.178L13.0866 17.4867C13.381 17.5161 13.6364 17.285 13.6364 16.9892L13.6364 15.9823C13.6364 15.7577 13.4866 15.5607 13.2702 15.5006L11.4545 14.9962" stroke="white" stroke-linecap="round"/>
</svg>
