<svg width="20" height="20" viewBox="0 0 20 20" fill="none" xmlns="http://www.w3.org/2000/svg">
<path d="M10.7275 2.63254H9.27291C8.67041 2.63254 7.81836 3.75544 7.81836 4.69205L8.00772 6.99618M8.54563 14.9962C8.54563 14.6326 8.54563 14.079 8.54563 13.5416L8.30656 10.6326" stroke="#262626" stroke-linecap="round"/>
<path d="M8.30615 10.6325L3.17049 11.521C2.55914 11.6267 2.00003 11.156 2.00003 10.5356L2.00003 9.55872C2.00003 9.11695 2.28991 8.72753 2.7131 8.60077L7.99775 7.01783" stroke="#262626" stroke-linecap="round"/>
<path d="M10 17.178L6.91339 17.4867C6.61904 17.5161 6.36363 17.285 6.36363 16.9892L6.36363 15.9823C6.36363 15.7577 6.5134 15.5607 6.72981 15.5005L8.54545 14.9962" stroke="#262626" stroke-linecap="round"/>
<path d="M9.27255 2.63254H10.7271C11.3296 2.63254 12.1816 3.75544 12.1816 4.69205L11.9923 6.99618M11.4544 14.9962C11.4544 14.6326 11.4544 14.079 11.4544 13.5416L11.6934 10.6326" stroke="#262626" stroke-linecap="round"/>
<path d="M11.6938 10.6325L16.8295 11.521C17.4409 11.6267 18 11.156 18 10.5356L18 9.55872C18 9.11695 17.7101 8.72753 17.2869 8.60077L12.0023 7.01783" stroke="#262626" stroke-linecap="round"/>
<path d="M10 17.178L13.0866 17.4867C13.381 17.5161 13.6364 17.285 13.6364 16.9892L13.6364 15.9823C13.6364 15.7577 13.4866 15.5607 13.2702 15.5005L11.4545 14.9962" stroke="#262626" stroke-linecap="round"/>
</svg>
