<svg width="20" height="20" viewBox="0 0 20 20" fill="none" xmlns="http://www.w3.org/2000/svg">
<path d="M5 5.5V4C5 2.89543 5.89543 2 7 2H13C14.1046 2 15 2.89543 15 4V5.5" stroke="#262626"/>
<mask id="path-2-inside-1_80_531" fill="white">
<path fill-rule="evenodd" clip-rule="evenodd" d="M4 5C2.89543 5 2 5.89543 2 7V11C2 12.1046 2.89543 13 4 13H6V10H14V13H16C17.1046 13 18 12.1046 18 11V7C18 5.89543 17.1046 5 16 5H4Z"/>
</mask>
<path d="M6 13V14H7V13H6ZM6 10V9H5V10H6ZM14 10H15V9H14V10ZM14 13H13V14H14V13ZM3 7C3 6.44772 3.44772 6 4 6V4C2.34315 4 1 5.34315 1 7H3ZM3 11V7H1V11H3ZM4 12C3.44772 12 3 11.5523 3 11H1C1 12.6569 2.34315 14 4 14V12ZM6 12H4V14H6V12ZM7 13V10H5V13H7ZM6 11H14V9H6V11ZM13 10V13H15V10H13ZM16 12H14V14H16V12ZM17 11C17 11.5523 16.5523 12 16 12V14C17.6569 14 19 12.6569 19 11H17ZM17 7V11H19V7H17ZM16 6C16.5523 6 17 6.44772 17 7H19C19 5.34315 17.6569 4 16 4V6ZM4 6H16V4H4V6Z" fill="#262626" mask="url(#path-2-inside-1_80_531)"/>
<path d="M6 9.5H5.5V10V15C5.5 16.3807 6.61929 17.5 8 17.5H12C13.3807 17.5 14.5 16.3807 14.5 15V10V9.5H14H6Z" stroke="#262626"/>
<path d="M8 15H12" stroke="#262626" stroke-linecap="round"/>
<path d="M8 13H12" stroke="#262626" stroke-linecap="round"/>
</svg>
