<svg width="20" height="20" viewBox="0 0 20 20" fill="none" xmlns="http://www.w3.org/2000/svg">
<path d="M18.3332 9.99999C18.3332 5.39762 14.6022 1.66666 9.99984 1.66666C5.39746 1.66666 1.6665 5.39762 1.6665 9.99999C1.6665 14.6024 5.39746 18.3333 9.99984 18.3333C14.6022 18.3333 18.3332 14.6024 18.3332 9.99999Z" stroke="#262626"/>
<path d="M7.9165 7.26503C8.02888 6.9687 8.19869 6.70309 8.41144 6.48347C8.80103 6.08129 9.3346 5.83331 9.92315 5.83331C11.1161 5.83331 12.0832 6.85211 12.0832 8.10886C12.0832 9.18607 11.3727 10.0885 10.4184 10.3243C10.1503 10.3906 9.92315 10.6083 9.92315 10.8844V11.6666" stroke="#262626" stroke-linecap="round"/>
<path d="M9.99984 15.2083C10.4601 15.2083 10.8332 14.8352 10.8332 14.375C10.8332 13.9147 10.4601 13.5416 9.99984 13.5416C9.5396 13.5416 9.1665 13.9147 9.1665 14.375C9.1665 14.8352 9.5396 15.2083 9.99984 15.2083Z" fill="#262626"/>
</svg>
