<svg width="20" height="20" viewBox="0 0 20 20" fill="none" xmlns="http://www.w3.org/2000/svg">
<path d="M8.96897 12.0257V11.9018C8.97207 11.3267 9.02483 10.8691 9.12723 10.5291C9.23274 10.1891 9.38169 9.91579 9.57409 9.70925C9.76649 9.49952 10.0008 9.30728 10.277 9.13251C10.4663 9.01176 10.6354 8.87989 10.7843 8.73689C10.9364 8.59072 11.0559 8.42866 11.1427 8.25071C11.2296 8.06959 11.2731 7.86781 11.2731 7.64538C11.2731 7.39434 11.2157 7.17668 11.1009 6.99237C10.986 6.80807 10.8309 6.66508 10.6354 6.56339C10.443 6.46171 10.2273 6.41087 9.98836 6.41087C9.76804 6.41087 9.55857 6.46012 9.35997 6.55863C9.16447 6.65396 9.00155 6.80013 8.87122 6.99714C8.74399 7.19098 8.67261 7.43724 8.6571 7.73594H7C7.01552 7.13219 7.15826 6.62695 7.42824 6.22021C7.70132 5.81347 8.06129 5.50842 8.50815 5.30505C8.95811 5.10168 9.45462 5 9.99767 5C10.5904 5 11.1117 5.10645 11.5617 5.31935C12.0147 5.53225 12.367 5.83572 12.6183 6.22974C12.8728 6.62059 13 7.08453 13 7.62154C13 7.98379 12.9426 8.30791 12.8278 8.5939C12.7161 8.87989 12.5562 9.1341 12.3483 9.35653C12.1404 9.57896 11.8937 9.77757 11.6082 9.95234C11.3569 10.1112 11.1505 10.2765 10.9891 10.448C10.8309 10.6196 10.713 10.8214 10.6354 11.0534C10.5609 11.2822 10.5221 11.565 10.519 11.9018V12.0257H8.96897ZM9.7789 15C9.49961 15 9.25912 14.8983 9.05741 14.6949C8.8557 14.4916 8.75485 14.2437 8.75485 13.9514C8.75485 13.6654 8.8557 13.4207 9.05741 13.2173C9.25912 13.014 9.49961 12.9123 9.7789 12.9123C10.0551 12.9123 10.294 13.014 10.4957 13.2173C10.7005 13.4207 10.8029 13.6654 10.8029 13.9514C10.8029 14.1452 10.7548 14.3216 10.6587 14.4805C10.5656 14.6393 10.4414 14.7664 10.2863 14.8618C10.1342 14.9539 9.96509 15 9.7789 15Z" fill="#262626"/>
</svg>
