<svg width="20" height="20" viewBox="0 0 20 20" fill="none" xmlns="http://www.w3.org/2000/svg">
<path d="M6.0625 16.125V12.1875C6.0625 11.7043 6.45425 11.3125 6.9375 11.3125H13.0625C13.5457 11.3125 13.9375 11.7043 13.9375 12.1875V16.5625M13.9375 3.875V5.625C13.9375 6.10825 13.5457 6.5 13.0625 6.5L6.9375 6.5C6.45425 6.5 6.0625 6.10825 6.0625 5.625L6.0625 3M16.5607 6.06066L13.9393 3.43934C13.658 3.15804 13.2765 3 12.8787 3H4.5C3.67156 3 3 3.67156 3 4.5V15.5C3 16.3284 3.67156 17 4.5 17H15.5C16.3284 17 17 16.3284 17 15.5V7.12131C17 6.72349 16.842 6.34196 16.5607 6.06066Z" stroke="#262626" stroke-linecap="round"/>
</svg>
