<svg width="20" height="20" viewBox="0 0 20 20" fill="none" xmlns="http://www.w3.org/2000/svg">
<path d="M12.2888 9.95599C12.2888 11.2343 11.266 12.2915 10.0003 12.2915C8.73469 12.2915 7.70459 11.2343 7.70459 9.95599C7.70459 8.67763 8.73469 7.70821 10.0003 7.70821C11.266 7.70821 12.2888 8.67763 12.2888 9.95599Z" stroke="#262626"/>
<path d="M11.6725 2.97895L11.3564 2.26286C11.1965 1.90047 10.8377 1.66666 10.4416 1.66666H9.53805C9.14193 1.66666 8.78315 1.90047 8.6232 2.26286L8.30713 2.97895C7.69365 4.36884 6.25358 5.20423 4.74251 5.04681L3.76831 4.94532C3.37733 4.90459 2.99876 5.0967 2.80078 5.43629L2.41633 6.09575C2.21449 6.44197 2.23884 6.87525 2.4782 7.19668L3.01678 7.91988C3.93694 9.15549 3.94096 10.8475 3.0267 12.0874L2.47366 12.8375C2.23685 13.1587 2.21364 13.5899 2.41462 13.9346L2.79795 14.5921C2.99737 14.9342 3.37985 15.1264 3.77334 15.0822L4.72354 14.9756C6.24348 14.8051 7.69812 15.6413 8.31572 17.0405L8.6232 17.7371C8.78315 18.0995 9.14193 18.3333 9.53805 18.3333H10.4416C10.8377 18.3333 11.1965 18.0995 11.3564 17.7371L11.6639 17.0405C12.2815 15.6413 13.7361 14.8051 15.2561 14.9756L16.2124 15.0829C16.6027 15.1267 16.9826 14.9379 17.1834 14.6002L17.5801 13.933C17.7844 13.5894 17.7644 13.1571 17.5292 12.8338L16.973 12.069C16.0767 10.8367 16.0806 9.16613 16.9828 7.93809L17.5247 7.20044C17.7624 6.87686 17.7835 6.44247 17.5783 6.09734L17.1805 5.42826C16.9812 5.09305 16.6052 4.90429 16.2174 4.9447L15.2371 5.04681C13.726 5.20423 12.286 4.36884 11.6725 2.97895Z" stroke="#262626" stroke-miterlimit="10"/>
</svg>
