<svg width="20" height="20" viewBox="0 0 20 20" fill="none" xmlns="http://www.w3.org/2000/svg">
<path d="M17.5448 4.66548C17.6219 5.74447 17.7166 8.45856 17.0837 11.6667C16.435 14.9544 12.3995 17.2044 10.7257 18.0074C10.2635 18.2291 9.73566 18.2291 9.27344 18.0074C7.59983 17.2043 3.56485 14.9543 2.91627 11.6667C2.28335 8.45832 2.37848 5.74406 2.45573 4.66523C2.4783 4.34991 2.66124 4.07488 2.941 3.92766C4.12907 3.30246 7.47844 1.66666 9.99907 1.66666C12.5197 1.66666 15.8706 3.30243 17.0593 3.92765C17.3392 4.07487 17.5222 4.35001 17.5448 4.66548Z" stroke="white"/>
<path d="M7.50012 9.72081L9.04758 11.4893C9.25382 11.725 9.62352 11.7153 9.81703 11.469L12.5001 8.05414" stroke="white" stroke-linecap="round" stroke-linejoin="round"/>
</svg>
