<svg width="20" height="20" viewBox="0 0 20 20" fill="none" xmlns="http://www.w3.org/2000/svg">
<path d="M17.5445 4.66546C17.6216 5.74445 17.7164 8.45854 17.0834 11.6666C16.4347 14.9543 12.3992 17.2044 10.7255 18.0074C10.2632 18.2291 9.73538 18.2291 9.27317 18.0073C7.59956 17.2043 3.56457 14.9543 2.916 11.6666C2.28307 8.4583 2.37821 5.74405 2.45545 4.66522C2.47803 4.34989 2.66097 4.07487 2.94073 3.92765C4.1288 3.30245 7.47816 1.66665 9.99879 1.66665C12.5194 1.66665 15.8703 3.30242 17.059 3.92763C17.3389 4.07485 17.522 4.35 17.5445 4.66546Z" stroke="#262626"/>
<path d="M7.5 9.7208L9.04746 11.4893C9.2537 11.725 9.6234 11.7153 9.81691 11.469L12.5 8.05414" stroke="#262626" stroke-linecap="round" stroke-linejoin="round"/>
</svg>
