<?xml version="1.0" standalone="no"?>
<!DOCTYPE svg PUBLIC "-//W3C//DTD SVG 20010904//EN"
 "http://www.w3.org/TR/2001/REC-SVG-20010904/DTD/svg10.dtd">
<svg version="1.0" xmlns="http://www.w3.org/2000/svg"
 width="700.000000pt" height="700.000000pt" viewBox="0 0 700.000000 700.000000"
 preserveAspectRatio="xMidYMid meet">
<metadata>
Created by potrace 1.14, written by Peter Selinger 2001-2017
</metadata>
<g transform="translate(0.000000,700.000000) scale(0.100000,-0.100000)"
fill="#000000" stroke="none">
<path d="M2420 6984 c-521 -62 -1010 -265 -1405 -583 -83 -67 -80 -64 -190
-171 -167 -162 -289 -312 -409 -504 -178 -284 -323 -653 -370 -946 -3 -19 -8
-48 -11 -65 -9 -55 -14 -89 -22 -160 -10 -91 -10 -2019 0 -2110 7 -61 12 -98
34 -230 2 -16 16 -77 30 -135 167 -701 612 -1310 1236 -1689 152 -92 356 -186
542 -250 86 -29 296 -84 360 -94 17 -3 59 -10 95 -16 143 -23 260 -26 1200
-26 853 0 1056 4 1145 21 11 2 40 7 65 10 25 3 73 12 106 19 34 8 73 16 85 19
74 14 275 77 385 122 204 81 480 237 624 351 356 281 602 577 789 950 122 243
215 526 255 778 30 190 31 236 31 1200 0 1001 -2 1071 -30 1242 -67 397 -211
759 -434 1092 -68 101 -64 95 -148 196 -328 396 -722 671 -1198 840 -110 39
-321 96 -405 109 -19 3 -44 8 -55 10 -12 2 -45 7 -75 11 -30 3 -68 9 -85 12
-16 3 -480 7 -1030 8 -793 2 -1024 0 -1115 -11z"/>
</g>
</svg>
